<?xml version="1.0" encoding="utf-8" ?>
<svg xmlns="http://www.w3.org/2000/svg" xmlns:xlink="http://www.w3.org/1999/xlink" width="1222" height="1222">
	<path transform="matrix(2.444 0 0 2.444 6.10352e-05 0)" d="M226.582 21.1133C229.089 23.0645 232.414 31.6285 234.06 34.8697C239.271 35.9584 244.659 36.7648 249.967 37.1534C246.391 40.0364 241.82 45.267 238.387 48.64Q239.807 56.308 240.925 64.0258C236.242 61.8702 231.754 59.2294 227.184 56.8395C222.077 58.5749 217.501 61.6151 212.646 63.9247C213.862 58.8469 214.632 53.6179 215.505 48.4719C211.302 45.1876 207.431 41.1963 203.964 37.1559Q211.818 35.9032 219.718 34.9785C221.921 30.3226 224.297 25.7306 226.582 21.1133Z"/>
	<path transform="matrix(2.444 0 0 2.444 6.10352e-05 0)" d="M278.272 21.141C279.586 21.7893 284.167 32.6391 285.362 34.7091C290.532 35.8973 295.896 36.4473 301.14 37.2234C297.59 41.1351 293.745 44.7671 289.928 48.4145C290.807 53.6598 291.437 58.8996 292.493 64.1249C287.73 61.8713 282.983 59.6174 278.469 56.8864C273.761 59.223 268.646 61.3552 264.253 64.2199C264.662 58.9407 265.829 53.6307 266.766 48.4237C262.648 45.2446 258.866 41.0655 255.426 37.1717Q263.373 36.0487 271.301 34.8034C272.863 30.0564 275.644 25.3788 278.272 21.141Z"/>
	<path fill="#00204C" transform="matrix(2.444 0 0 2.444 6.10352e-05 0)" d="M253.809 76.0905C255.053 75.9212 256.491 76.0824 257.735 76.2594C267.549 77.657 267.021 88.8148 275.105 92.0904C278.014 93.2692 281.989 93.4585 285.103 94.0713C289.675 94.9711 294.317 96.5393 298.977 96.757C300.756 96.8401 302.447 96.6001 304.104 95.9223C307.948 94.3496 310.73 90.9468 314.569 89.384C318.208 87.9024 321.931 88.447 325.428 89.9886C333.349 93.4794 331.573 101.475 334.261 108.074Q334.558 108.81 334.936 109.509Q335.314 110.207 335.768 110.858Q336.223 111.509 336.748 112.104Q337.273 112.7 337.862 113.232C340.455 115.616 344.156 117.428 347.111 119.393C349.901 121.249 352.528 123.434 355.501 124.995C356.99 125.777 358.591 126.412 360.262 126.655C366.624 127.58 372.778 123.274 379.067 126.058C381.199 127.001 383.042 128.633 384.474 130.459C391.106 138.908 382.824 145.919 386.147 154.451C387.706 158.454 396.641 172.106 399.899 175.27Q400.79 176.137 401.842 176.798Q402.895 177.458 404.063 177.883C408.04 179.364 412.498 178.988 416.409 180.836C419.531 182.312 421.526 184.913 422.697 188.092C426.349 198.003 419.848 200.049 416.451 207.674Q416.146 208.34 415.921 209.037Q415.697 209.735 415.555 210.453Q415.413 211.172 415.356 211.903Q415.298 212.633 415.327 213.365C415.455 216.872 416.73 220.276 417.419 223.702C418.18 227.49 418.536 231.418 419.683 235.117C420.166 236.676 420.827 238.248 421.819 239.555C425.861 244.885 433.421 245.444 435.873 252.457C436.46 254.136 436.55 255.942 436.495 257.708C436.154 268.632 424.451 268.721 420.639 276.629C419.158 279.701 415.517 297.596 415.445 301.225Q415.425 302.337 415.636 303.43Q415.847 304.522 416.278 305.548C418.056 309.844 421.906 312.99 423.297 317.483C424.393 321.024 423.585 324.869 421.867 328.073C418.174 334.96 411.871 333.924 405.552 335.9C403.915 336.412 402.379 337.087 401.085 338.239C398.523 340.518 389.239 353.821 387.474 357.154C386.572 358.856 385.842 360.652 385.578 362.571C384.669 369.182 389.792 375.181 386.258 381.666C385.255 383.507 383.741 385.193 382.137 386.532C374.413 392.977 366.993 385.319 358.87 387.884C354.042 389.409 340.079 399.031 336.49 402.718C335.457 403.78 334.787 404.843 334.279 406.231C332.747 410.421 333.409 415.256 331.213 419.213C329.543 422.224 326.472 424.146 323.237 425.111C315.323 427.47 311.592 422.376 305.414 419.038C303.626 418.072 301.615 417.404 299.563 417.444C295.756 417.518 291.574 419.127 287.831 419.875C284.323 420.577 280.671 420.796 277.241 421.844C275.675 422.322 274.064 423.004 272.752 423.994C266.278 428.877 268.338 435.29 258.026 438.345C242.406 440.078 245.624 429.53 237.492 423.824C236.129 422.868 234.567 422.236 232.975 421.773C229.984 420.903 226.758 420.716 223.7 420.109C219.684 419.312 215.616 417.865 211.519 417.621Q210.323 417.548 209.136 417.711Q207.948 417.874 206.816 418.267C201.725 419.997 198.237 424.914 192.772 425.673C190.263 426.022 187.616 425.589 185.292 424.596C173.927 419.738 180.71 407.486 172.28 401.073C170.031 399.362 167.295 398.154 164.898 396.626C160.137 393.59 155.338 388.349 149.452 387.879C145.922 387.598 142.368 388.861 138.89 389.314C135.134 389.804 131.466 389.255 128.406 386.857C119.164 379.616 125.847 371.339 124.664 362.391C124.442 360.712 123.869 359.108 123.059 357.625C121.658 355.058 119.406 352.687 117.724 350.258C115.393 346.893 113.493 343.107 110.84 339.982C109.735 338.681 108.454 337.523 106.917 336.755C101.956 334.273 95.9269 335.718 91.3399 331.97C89.3426 330.338 87.9524 328.046 87.1928 325.607C83.6091 314.098 95.7467 310.938 94.6737 300.718C94.3161 297.313 93.2011 293.799 92.5217 290.43C91.7614 286.661 91.4169 282.674 90.2255 279.013C89.6846 277.351 88.9368 275.642 87.7524 274.339C85.2864 271.625 81.5423 270.121 78.7168 267.775C76.0149 265.532 74.3585 262.779 74.0551 259.219C73.8261 256.531 74.1162 253.739 75.2414 251.265C77.9683 245.272 84.2925 244.72 88.0548 240.022C88.8922 238.977 89.5346 237.739 89.9449 236.465C91.0281 233.102 91.2742 229.228 91.9808 225.747C92.8051 221.687 94.1617 217.619 94.595 213.494C94.741 212.105 94.7043 210.822 94.2911 209.477C92.6112 204.014 87.0394 200.608 86.468 194.597C86.2539 192.345 86.712 190.102 87.51 188.002C91.6438 177.127 104.962 181.962 111.367 173.885C113.499 171.195 115.131 167.975 117.031 165.105C119.273 161.719 121.965 158.598 123.77 154.939C124.365 153.731 124.614 152.659 124.683 151.311C124.878 147.483 123.311 143.838 122.872 140.075C122.455 136.498 123.294 133.132 125.559 130.292C133.215 120.694 140.513 128.105 149.595 126.887C151.239 126.667 152.627 126.102 154.072 125.317C156.877 123.796 159.391 121.648 162.053 119.886C165.505 117.6 169.564 115.584 172.632 112.816Q173.418 112.115 174.061 111.282Q174.705 110.449 175.185 109.512C177.696 104.546 176.343 98.3133 179.999 93.7573C181.622 91.7337 184.024 90.166 186.491 89.4106C197.282 86.1063 202.774 98.1109 213.223 96.6876C216.803 96.2001 220.347 95.0676 223.884 94.3289C227.098 93.6577 230.499 93.374 233.604 92.2908C235.301 91.6985 236.941 90.8477 238.268 89.6208C240.752 87.3238 241.979 84.0402 244.006 81.3836C246.569 78.0245 249.697 76.6235 253.809 76.0905ZM254.318 149.36C224.96 150.474 196.878 161.669 176.713 183.424Q175.804 184.388 174.919 185.375Q174.033 186.362 173.173 187.37Q172.312 188.378 171.477 189.407Q170.642 190.436 169.832 191.486Q169.022 192.535 168.239 193.604Q167.455 194.673 166.699 195.761Q165.942 196.85 165.212 197.956Q164.482 199.063 163.78 200.187Q163.078 201.311 162.404 202.452Q161.73 203.593 161.084 204.751Q160.438 205.908 159.821 207.081Q159.204 208.255 158.616 209.443Q158.028 210.63 157.47 211.833Q156.912 213.035 156.383 214.25Q155.855 215.466 155.356 216.694Q154.858 217.922 154.39 219.163Q153.923 220.403 153.486 221.654Q153.049 222.906 152.643 224.167Q152.237 225.429 151.862 226.7Q151.488 227.972 151.144 229.252Q150.801 230.532 150.49 231.821Q150.178 233.109 149.899 234.405Q149.62 235.701 149.372 237.003Q149.125 238.305 148.91 239.613Q148.694 240.921 148.512 242.233Q148.329 243.546 148.179 244.863Q148.028 246.18 147.911 247.5Q147.793 248.821 147.708 250.143Q147.623 251.466 147.571 252.79Q147.518 254.115 147.499 255.44Q147.479 256.766 147.492 258.091Q147.505 259.416 147.551 260.741Q147.594 262.092 147.671 263.441Q147.749 264.79 147.859 266.137Q147.97 267.484 148.115 268.827Q148.26 270.171 148.438 271.51Q148.616 272.85 148.828 274.185Q149.04 275.519 149.285 276.848Q149.53 278.177 149.808 279.499Q150.087 280.822 150.398 282.137Q150.71 283.452 151.054 284.758Q151.398 286.065 151.775 287.363Q152.152 288.661 152.561 289.949Q152.97 291.236 153.412 292.514Q153.853 293.791 154.327 295.057Q154.8 296.322 155.305 297.576Q155.81 298.829 156.346 300.07Q156.882 301.31 157.449 302.537Q158.016 303.764 158.614 304.976Q159.211 306.188 159.839 307.384Q160.467 308.581 161.125 309.762Q161.782 310.942 162.469 312.106Q163.156 313.269 163.872 314.416Q164.588 315.562 165.332 316.69Q166.077 317.817 166.849 318.926Q167.622 320.035 168.422 321.124Q169.222 322.213 170.049 323.282Q170.876 324.351 171.729 325.398Q172.583 326.446 173.462 327.472Q174.342 328.498 175.247 329.502Q176.152 330.505 177.082 331.486Q178.011 332.466 178.965 333.423Q179.92 334.38 180.897 335.313Q181.875 336.246 182.876 337.154Q183.814 338.001 184.771 338.826Q185.729 339.651 186.705 340.453Q187.681 341.255 188.676 342.035Q189.671 342.814 190.684 343.57Q191.697 344.325 192.727 345.057Q193.758 345.789 194.805 346.496Q195.852 347.204 196.915 347.887Q197.978 348.57 199.058 349.227Q200.137 349.885 201.231 350.518Q202.325 351.15 203.434 351.757Q204.542 352.363 205.665 352.944Q206.787 353.524 207.923 354.078Q209.059 354.632 210.207 355.16Q211.356 355.687 212.516 356.187Q213.677 356.688 214.848 357.161Q216.02 357.634 217.203 358.079Q218.386 358.525 219.578 358.943Q220.771 359.36 221.973 359.75Q223.175 360.14 224.386 360.501Q225.597 360.863 226.816 361.196Q228.035 361.529 229.262 361.833Q230.488 362.138 231.722 362.414Q232.955 362.689 234.194 362.936Q235.434 363.183 236.678 363.4Q237.923 363.618 239.173 363.807Q240.423 363.995 241.676 364.154Q242.93 364.314 244.187 364.444Q245.444 364.573 246.704 364.674Q247.963 364.774 249.225 364.845Q250.487 364.916 251.75 364.958Q253.013 364.999 254.277 365.011Q255.54 365.023 256.804 365.005C285.977 363.963 313.801 352.523 333.846 330.997Q334.744 330.04 335.618 329.062Q336.493 328.083 337.343 327.084Q338.194 326.085 339.019 325.065Q339.845 324.045 340.646 323.006Q341.446 321.966 342.221 320.907Q342.996 319.848 343.746 318.771Q344.495 317.694 345.217 316.598Q345.94 315.503 346.635 314.39Q347.331 313.278 347.999 312.148Q348.668 311.019 349.308 309.874Q349.949 308.729 350.562 307.568Q351.174 306.408 351.758 305.233Q352.342 304.058 352.898 302.869Q353.453 301.68 353.979 300.478Q354.505 299.276 355.002 298.062Q355.499 296.847 355.966 295.621Q356.433 294.394 356.87 293.157Q357.307 291.92 357.713 290.672Q358.12 289.425 358.496 288.168Q358.872 286.91 359.218 285.645Q359.563 284.379 359.877 283.105Q360.192 281.831 360.475 280.549Q360.759 279.268 361.011 277.98Q361.263 276.693 361.483 275.399Q361.704 274.106 361.893 272.807Q362.082 271.509 362.239 270.206Q362.396 268.903 362.522 267.597Q362.647 266.291 362.741 264.982Q362.835 263.673 362.896 262.362Q362.958 261.052 362.988 259.74Q363.018 258.428 363.015 257.116Q363.013 255.804 362.979 254.492C361.924 225.196 350.048 198.162 328.513 178.132C309.146 160.119 280.901 148.521 254.318 149.36Z"/>
	<path fill="#FDFCFD" transform="matrix(2.444 0 0 2.444 6.10352e-05 0)" d="M127.324 324.48C127.903 324.617 128.557 324.877 129.06 325.201C129.621 325.562 129.679 325.977 129.82 326.587C129.645 327.507 129.219 328.015 128.646 328.739L125.492 328.37C125.427 327.408 125.325 326.484 125.533 325.532C126.094 324.849 126.509 324.787 127.324 324.48Z"/>
	<path fill="#FDFCFD" transform="matrix(2.444 0 0 2.444 6.10352e-05 0)" d="M411.371 252.728L411.842 253.046C412.147 253.95 412.227 254.56 411.981 255.494C411.429 257.593 409.78 259.219 408.006 260.323C407.969 260.259 407.932 260.196 407.896 260.132C407.27 259.01 406.957 257.846 407.346 256.584C407.94 254.657 409.691 253.6 411.371 252.728Z"/>
	<path fill="#FDFCFD" transform="matrix(2.444 0 0 2.444 6.10352e-05 0)" d="M371.119 247.478C373.013 249.004 374.926 250.446 376.017 252.674C375.618 254.045 375.222 255.409 374.728 256.75C373.548 255.857 372.386 254.891 371.096 254.162C370.391 252.017 370.866 249.677 371.119 247.478Z"/>
	<path fill="#FDFCFD" transform="matrix(2.444 0 0 2.444 6.10352e-05 0)" d="M402.356 254.125C402.458 254.174 402.561 254.221 402.662 254.273C404.937 255.465 406.11 258.889 406.765 261.213L405.457 262.993C404.974 263.539 404.883 263.757 404.16 263.939L403.566 263.581C401.866 260.897 401.887 257.154 402.356 254.125Z"/>
	<path fill="#FDFCFD" transform="matrix(2.444 0 0 2.444 6.10352e-05 0)" d="M126.011 334.568C126.123 334.526 126.237 334.488 126.348 334.441C127.164 334.097 127.687 332.957 128.283 332.321C129.218 331.322 131.098 331.394 131.485 329.967C131.615 329.486 131.508 329.121 131.43 328.651C131.327 328.029 131.343 327.386 131.335 326.756L131.582 326.644C132.309 328.115 132.354 329.767 131.845 331.323C131.45 332.534 130.789 333.561 129.626 334.138C128.46 334.717 127.304 334.998 126.014 334.816C125 335.012 124.078 335.161 123.109 334.704C121.825 334.097 120.804 332.875 120.424 331.51C120.203 330.719 120.328 330.253 120.707 329.549C121.332 329.298 121.66 329.202 122.321 329.427C126.417 330.821 123.071 332.267 123.9 334.064C124.682 334.147 125.286 334.258 126.011 334.568Z"/>
	<path fill="#FDFCFD" transform="matrix(2.444 0 0 2.444 6.10352e-05 0)" d="M414.089 259.024C414.29 259.065 414.475 259.222 414.648 259.331C414.569 259.887 414.414 260.359 414.195 260.879C412.729 264.366 408.284 265.542 405.063 266.884L404.829 266.966L404.532 266.775C404.61 266.36 404.729 266.074 404.93 265.701C407.001 261.851 410.069 260.199 414.089 259.024Z"/>
	<path fill="#FDFCFD" transform="matrix(2.444 0 0 2.444 6.10352e-05 0)" d="M397.419 264.248C396.934 263.022 397.685 259.598 398.209 258.377L398.673 257.966C399.482 258.082 399.843 258.413 400.329 259.067C401.934 261.226 403.907 265.765 403.339 268.462C403.318 268.561 403.283 268.656 403.255 268.753L400.678 272.178C400.064 269.43 398.963 266.61 397.419 264.248Z"/>
	<path fill="#FDFCFD" transform="matrix(2.444 0 0 2.444 6.10352e-05 0)" d="M403.358 270.057C405.133 268.295 410.092 264.759 412.594 264.867C412.989 264.884 413.01 264.91 413.339 265.013C413.686 265.535 413.744 265.791 413.6 266.418C413.292 267.755 412.253 269.278 411.465 270.406C409.596 271.122 407.63 271.776 405.826 272.642C403.97 273.375 402.214 274.481 400.47 275.45C401.277 273.568 402.167 271.727 403.358 270.057Z"/>
	<path fill="#FDFCFD" transform="matrix(2.444 0 0 2.444 6.10352e-05 0)" d="M390.465 271.205L391.835 273.24C394.094 277.017 395.56 280.694 395.066 285.175C394.948 286.246 394.595 287.252 394.446 288.304C394.257 288.714 394.291 288.748 393.894 289.019C393.375 288.094 393.149 287.015 392.778 286.023C391.868 283.588 390.546 280.903 388.588 279.139C387.648 276.654 389.462 273.461 390.465 271.205Z"/>
	<path fill="#FDFCFD" transform="matrix(2.444 0 0 2.444 6.10352e-05 0)" d="M408.121 272.662L412.664 271.751C411.796 273.967 410.875 276.106 409.501 278.062C407.684 278.642 405.853 279.15 404.012 279.649C401.821 280.448 399.932 282.228 397.802 282.824L397.558 282.589C397.622 282.333 397.649 282.182 397.737 281.945C399.451 277.318 403.855 274.549 408.121 272.662Z"/>
	<path fill="#FDFCFD" transform="matrix(2.444 0 0 2.444 6.10352e-05 0)" d="M406.546 280.246C407.801 280.019 409.062 279.812 410.305 279.529C409.39 281.52 408.445 283.47 407.206 285.283C404.042 286.298 400.812 287.043 398.006 288.889C397.051 289.374 396.338 290.21 395.356 290.664C395.015 289.977 395.413 289.045 395.626 288.33C395.854 287.802 396.091 287.275 396.366 286.77C398.464 282.914 402.601 281.402 406.546 280.246Z"/>
	<path fill="#FDFCFD" transform="matrix(2.444 0 0 2.444 6.10352e-05 0)" d="M392.546 271.339C392.968 268.31 393.727 265.442 394.585 262.514C395.539 263.681 396.361 264.963 397.215 266.204C399.044 269.851 399.61 272.991 399.453 277.061Q398.005 279.43 396.496 281.762C395.779 277.996 393.646 274.928 392.546 271.339Z"/>
	<path fill="#FDFCFD" transform="matrix(2.444 0 0 2.444 6.10352e-05 0)" d="M377.433 279.947Q376.637 279.257 375.855 278.552C372.633 275.633 369.435 270.61 369.442 266.071C369.443 265.451 369.521 265.192 369.962 264.77L371.051 265.047C371.77 265.939 373.082 266.541 374.006 267.23C375.414 268.278 376.681 269.394 377.895 270.659C378.21 271.279 378.371 271.514 378.989 271.845C378.694 274.723 378.658 277.606 379.126 280.467C378.361 280.383 378.064 280.413 377.433 279.947Z"/>
	<path fill="#29537A" transform="matrix(2.444 0 0 2.444 6.10352e-05 0)" d="M377.895 270.659C378.21 271.279 378.371 271.514 378.989 271.845C378.694 274.723 378.658 277.606 379.126 280.467C378.361 280.383 378.064 280.413 377.433 279.947C377.73 276.431 377.109 274.612 377.895 270.659Z"/>
	<path fill="#FDFCFD" transform="matrix(2.444 0 0 2.444 6.10352e-05 0)" d="M391.468 296.615C391.098 297.181 391.084 297.442 390.406 297.592C389.786 297.276 389.432 296.967 389.028 296.395C386.357 292.613 384.916 285.567 385.96 281.043C386.145 280.24 386.42 279.95 387.114 279.539L387.799 279.73C390.4 283.969 394.098 288.067 392.801 293.478C392.534 294.593 391.991 295.604 391.468 296.615Z"/>
	<path fill="#FDFCFD" transform="matrix(2.444 0 0 2.444 6.10352e-05 0)" d="M383.182 263.728L383.506 263.328L383.864 263.412C385.702 266.605 385.965 271.32 385.036 274.838C384.315 277.568 382.876 280.353 380.88 282.362C381.924 286.224 382.957 290.039 383.635 293.985C381.545 290.003 380.156 284.838 379.126 280.467C378.658 277.606 378.694 274.723 378.989 271.845C379.784 268.752 381.377 266.323 383.182 263.728Z"/>
	<path fill="#FDFCFD" transform="matrix(2.444 0 0 2.444 6.10352e-05 0)" d="M398.296 289.7C401.359 288.09 404.313 287.274 407.667 286.497C406.002 291.271 403.236 295.144 398.575 297.358C396.25 298.463 393.803 298.909 391.354 299.613C390.425 301.624 387.383 309.74 385.988 310.707C385.781 308.72 388.37 302.846 389.392 301.053C390.059 299.883 391.066 298.86 391.69 297.696C393.567 294.508 395.384 292.03 398.296 289.7Z"/>
	<path fill="#29537A" transform="matrix(2.444 0 0 2.444 6.10352e-05 0)" d="M376.017 252.674C376.565 252.929 376.947 253.023 377.55 253.064L378.124 252.763C379.269 253.266 379.814 254.612 380.254 255.733C381.188 258.109 382.349 261.475 381.62 263.982C382.325 264.083 382.507 263.986 383.182 263.728C381.377 266.323 379.784 268.752 378.989 271.845C378.371 271.514 378.21 271.279 377.895 270.659C376.681 269.394 375.414 268.278 374.006 267.23C373.082 266.541 371.77 265.939 371.051 265.047C371.445 264.825 371.509 264.25 371.655 263.826C371.006 262.985 370.501 262.194 370.15 261.185C369.444 259.156 369.254 257.046 370.225 255.084C370.571 254.815 370.812 254.497 371.096 254.162C372.386 254.891 373.548 255.857 374.728 256.75C375.222 255.409 375.618 254.045 376.017 252.674Z"/>
	<path fill="#FDFCFD" transform="matrix(2.444 0 0 2.444 6.10352e-05 0)" d="M377.55 253.064L378.124 252.763C379.269 253.266 379.814 254.612 380.254 255.733C381.188 258.109 382.349 261.475 381.62 263.982C381.082 264.494 380.674 265.428 380.292 266.073C379.293 262.861 377.627 260.227 375.772 257.459C376.279 255.928 376.778 254.484 377.55 253.064Z"/>
	<path fill="#FDFCFD" transform="matrix(2.444 0 0 2.444 6.10352e-05 0)" d="M370.225 255.084C373.862 257.027 377.375 260.288 378.559 264.362C379.112 266.262 378.975 267.711 378.572 269.592C376.473 267.34 374.142 265.62 371.655 263.826C371.006 262.985 370.501 262.194 370.15 261.185C369.444 259.156 369.254 257.046 370.225 255.084Z"/>
	<path fill="#FDFCFD" transform="matrix(2.444 0 0 2.444 6.10352e-05 0)" d="M193.624 365.261C198.464 365.959 199.357 367.627 204.581 365.698L207.072 366.758C202.334 376.49 197.369 386.137 192.816 395.955L191.615 398.027C189.351 397.091 187.287 395.842 185.186 394.597C188.089 390.555 190.315 386.139 192.706 381.789C194.931 377.743 197.239 373.754 199.371 369.656C197.307 368.635 194.446 367.599 193.624 365.261Z"/>
	<path fill="#FDFCFD" transform="matrix(2.444 0 0 2.444 6.10352e-05 0)" d="M144.319 148.449C145.972 149.213 160.631 172.463 162.831 176.038Q165.131 173.711 167.477 171.432C169.33 169.658 175.591 163.489 177.835 163.536C178.319 164.034 178.364 164.164 178.542 164.84C177.998 166.363 174.704 168.495 173.31 169.677C168.529 174.016 163.945 178.412 159.547 183.143C156.007 177.784 152.123 172.605 148.394 167.375C145.298 163.032 142.306 158.37 138.71 154.421C140.502 152.365 142.437 150.422 144.319 148.449Z"/>
	<path fill="#FDFCFD" transform="matrix(2.444 0 0 2.444 6.10352e-05 0)" d="M352.399 136.332C355.987 138.114 371.114 154.542 375.083 158.568C374.526 159.36 374.016 160.187 373.494 161.002C368.574 154.761 362.638 149.566 357.328 143.698C354.989 147.357 353.101 151.424 350.275 154.749C353.155 157.29 355.849 160.135 358.603 162.817C359.392 163.624 360.626 164.679 361.068 165.715C361.334 166.336 361.321 166.44 361.058 167.004C360.433 167.329 360.336 167.366 359.636 167.319C357.385 165.675 350.963 159.066 349.244 156.747C346.155 162.319 342.473 167.564 339.59 173.252L334.224 168.664C337.466 164.249 339.929 158.955 342.58 154.17C345.872 148.228 349.369 142.419 352.399 136.332Z"/>
	<path fill="#FDFCFD" transform="matrix(2.444 0 0 2.444 6.10352e-05 0)" d="M298.662 106.795C303.646 108 323.893 115.751 326.293 119.471C326.371 120.121 326.438 120.135 326.06 120.656C325.49 120.781 325.102 120.647 324.578 120.434C321.929 119.354 319.362 117.902 316.761 116.69C312.88 114.883 308.902 113.274 304.942 111.648C304.035 116.005 303.092 120.466 301.464 124.617C305.851 126.558 310.297 128.75 314.872 130.209L313.734 133.024C310.042 130.616 305.535 129.149 301.451 127.523C300.177 128.214 297.391 141.416 296.693 143.751C301.893 145.931 308.391 148.069 313.041 151.164C313.727 151.621 313.805 151.954 313.958 152.745C313.731 153.42 313.687 153.501 313.139 153.952C311.5 153.904 305.93 150.577 303.92 149.649C299.484 147.602 295.013 145.901 290.325 144.527C291.516 140.093 292.335 135.554 293.313 131.069L298.662 106.795Z"/>
	<path fill="#FDFCFD" transform="matrix(2.444 0 0 2.444 6.10352e-05 0)" d="M229.068 101.557C230.727 101.393 232.43 101.349 234.077 101.654C238.262 102.43 240.475 105.208 242.684 108.537C241.513 109.276 240.409 109.998 239.355 110.901C237.695 108.338 236.043 106.115 233.098 104.904C230.697 103.916 227.775 103.869 225.395 104.949C222.712 106.165 221.325 108.369 220.29 110.995C220.601 111.909 220.886 112.867 221.527 113.611C224.953 117.584 233.567 118.724 238.328 121.119C240.864 122.394 243.503 124.321 244.358 127.156C245.178 129.878 244.178 133.008 242.801 135.395C240.752 138.946 237.452 140.404 233.691 141.42C231.525 141.884 229.391 142.151 227.185 141.77C223.336 141.105 221.016 138.704 218.822 135.712L221.9 133.229C222.899 134.798 223.894 136.158 225.383 137.309C227.12 138.652 229.542 139.713 231.783 139.342C234.047 138.968 236.954 137.681 238.286 135.787C239.21 134.473 239.48 132.643 239.115 131.092C237.743 125.256 224.544 123.538 219.76 120.672C217.784 119.489 216.142 117.808 215.626 115.502C215.033 112.855 215.989 109.635 217.482 107.405C219.974 103.685 224.952 102.387 229.068 101.557Z"/>
	<path fill="#FDFCFD" transform="matrix(2.444 0 0 2.444 6.10352e-05 0)" d="M265.124 100.035C268.612 99.766 272.314 99.8953 275.555 101.362C279.961 103.357 281.661 106.789 283.339 111.017L279.279 112.057Q279.127 111.452 278.959 110.851C278.106 107.815 276.4 105.288 273.571 103.772C271.094 102.446 267.858 101.979 265.162 102.883C263.706 103.372 262.392 104.3 261.759 105.739C258.478 113.199 277.612 119.342 280.62 127.488C281.492 129.849 281.115 132.307 280.039 134.535C278.659 137.392 276.467 138.913 273.544 139.9C270.185 140.718 266.53 140.808 263.247 139.623C258.679 137.974 256.543 134.565 254.609 130.404C255.862 129.974 257.091 129.469 258.325 128.988C259.303 132.294 260.991 135.096 264.094 136.823C266.153 137.97 268.456 138.225 270.709 137.602C272.383 137.139 273.922 136.296 274.775 134.724C279.765 125.533 258.04 120.492 255.87 111.484C255.309 109.153 255.892 106.69 257.164 104.689C259.031 101.753 261.898 100.716 265.124 100.035Z"/>
	<path fill="#FDFCFD" transform="matrix(2.444 0 0 2.444 6.10352e-05 0)" d="M131.355 173.043C131.668 173.02 132.072 172.96 132.391 172.989C133.045 173.048 133.087 173.125 133.474 173.609C133.738 174.768 133.216 176.146 132.945 177.287C132.045 177.242 131.142 177.196 130.24 177.196C126.691 177.196 123.53 178.843 121.085 181.33C116.356 186.14 113.708 193.766 113.788 200.449C113.842 204.923 115.176 209.509 118.537 212.632C120.664 214.608 123.577 215.846 126.502 215.724C130.725 215.547 134.332 213.113 137.103 210.084C142.96 203.682 143.317 196.231 142.961 187.999L146.018 186.954C146.018 190.658 146.001 194.292 145.48 197.969C144.859 201.404 143.571 204.707 141.916 207.771C138.246 214.569 132.506 221.712 124.78 223.932C121.617 224.841 118.438 224.619 115.559 222.92C112.076 220.863 110.226 217.135 109.331 213.326C107.115 203.895 110.293 192.947 115.345 184.925C119.254 178.718 124.158 174.697 131.355 173.043Z"/>
	<path fill="#FDFCFD" transform="matrix(2.444 0 0 2.444 6.10352e-05 0)" d="M377.659 175.79C378.306 175.74 378.939 175.719 379.585 175.8C385.759 176.574 390.495 180.505 394.267 185.209C402.808 195.86 403.353 205.2 401.892 218.216Q400.302 216.726 398.662 215.291C399.888 210.647 400.659 206.279 399.686 201.505C398.479 195.588 395.034 189.508 389.902 186.15C387.167 184.361 383.736 183.37 380.495 184.152C376.668 185.075 374.13 188.172 372.151 191.353C371.204 193.269 370.532 195.242 370.157 197.348C369.034 203.649 370.744 210.813 374.416 216.03C377.535 220.462 381.245 222.384 386.521 223.314C386.681 224.794 386.677 226.305 386.723 227.793C384.293 226.983 381.813 225.927 379.64 224.561C372.192 219.881 367.506 210.42 365.669 202.078C364.208 195.439 364.248 187.801 368.088 181.914C370.409 178.354 373.587 176.643 377.659 175.79Z"/>
	<path fill="#FDFCFD" transform="matrix(2.444 0 0 2.444 6.10352e-05 0)" d="M185.269 116.03C193.789 120.129 207.291 138.457 214.357 145.734Q211.22 146.603 208.359 148.158C205.544 144.675 202.571 141.316 199.641 137.93C198.877 138.402 198.079 138.828 197.297 139.27C193.17 141.483 189.125 143.844 184.989 146.042C184.887 151.006 184.788 155.947 184.865 160.913L181.958 162.634C181.506 152.95 182.23 124.245 185.269 116.03Z"/>
	<path fill="#00204C" transform="matrix(2.444 0 0 2.444 6.10352e-05 0)" d="M186.351 126.048C190.119 127.43 194.964 133.529 197.899 136.481C196.068 137.226 194.339 138.08 192.593 139.005C190.032 140.273 187.535 141.755 185.027 143.13C185.767 137.463 186.025 131.75 186.351 126.048Z"/>
	<path fill="#FDFCFD" transform="matrix(2.444 0 0 2.444 6.10352e-05 0)" d="M308.496 363.238C309.54 364.241 318.85 381.312 319.902 383.608C321.774 382.382 323.658 381.172 325.472 379.86L327.583 383.489C325.644 384.572 323.716 385.734 321.668 386.599C323.412 389.195 324.828 392.012 326.528 394.644Q323.249 396.11 320.279 398.131L318.093 393.82C317.373 392.453 316.718 391.137 316.22 389.672C309.68 393.322 302.782 395.68 295.764 398.205C295.568 397.139 295.189 396.134 294.837 395.112C299.263 385.205 302.515 375.427 305.509 365.012C306.447 364.352 307.502 363.812 308.496 363.238Z"/>
	<path fill="#00204C" transform="matrix(2.444 0 0 2.444 6.10352e-05 0)" d="M306.54 371.463C308.692 373.481 312.72 383.284 314.326 386.448C311.222 387.72 308.17 389.208 305.097 390.563C303.09 391.351 301.076 392.119 299.122 393.035Q301.597 386.69 303.762 380.232C304.708 377.328 305.422 374.304 306.54 371.463Z"/>
	<path fill="#FDFCFD" transform="matrix(2.444 0 0 2.444 6.10352e-05 0)" d="M230.289 375.581C231.61 375.541 233.003 375.645 234.3 375.9C238.162 376.661 241.783 378.975 243.933 382.303Q244.327 382.924 244.66 383.58Q244.992 384.237 245.258 384.922Q245.525 385.608 245.724 386.316Q245.922 387.024 246.051 387.748Q246.18 388.473 246.238 389.206Q246.295 389.939 246.281 390.675Q246.267 391.41 246.182 392.141Q246.096 392.871 245.94 393.59C244.904 398.514 241.85 402.41 237.669 405.108C231.87 408.85 223.194 409.903 216.52 408.444C215.364 408.191 213.336 407.833 212.663 406.798L212.944 406.542L213.81 406.601C216.646 406.912 219.53 406.995 222.368 406.674C229.324 405.886 233.535 402.379 237.743 397.079C232.494 398.027 226.86 398.636 222.264 395.318C220.048 393.718 218.461 391.295 218.06 388.574C217.663 385.89 218.467 383.169 220.084 381.014C222.516 377.772 226.4 376.176 230.289 375.581Z"/>
	<path fill="#00204C" transform="matrix(2.444 0 0 2.444 6.10352e-05 0)" d="M231.424 377.274C232.104 377.333 232.796 377.446 233.453 377.639C235.432 378.221 237.022 379.592 238.027 381.372C240.414 385.599 239.579 390.59 238.368 395.02C236.58 395.448 234.81 395.733 232.988 395.973C231.319 395.799 229.626 395.546 228.16 394.679C226.364 393.616 225.174 391.965 224.67 389.945C223.968 387.134 224.523 383.813 226.011 381.34C227.282 379.228 229.06 377.905 231.424 377.274Z"/>
	<path fill="#FDFCFD" transform="matrix(2.444 0 0 2.444 6.10352e-05 0)" d="M269.153 376.826C270.938 376.566 273.094 376.82 274.838 377.257C276.891 377.771 278.847 378.8 279.903 380.71C280.675 382.107 280.796 383.702 280.341 385.223C279.301 388.696 276.151 390.87 273.165 392.561C275.801 393.441 278.461 394.382 280.862 395.802C283.119 397.136 285.583 399.156 286.185 401.824C286.576 403.553 286.029 405.242 285.037 406.665C282.488 410.318 278.174 411.915 273.974 412.673C269.995 413.289 265.102 413.238 261.517 411.163C259.12 409.776 258.076 407.889 257.37 405.321C257.518 404.666 257.667 404.004 257.89 403.37C259.222 399.582 263.315 396.874 266.78 395.221C265.332 394.604 263.881 393.839 262.577 392.957C260.375 391.467 258.263 389.368 257.828 386.633C257.551 384.888 258.025 383.172 259.056 381.75C261.417 378.494 265.398 377.405 269.153 376.826Z"/>
	<path fill="#00204C" transform="matrix(2.444 0 0 2.444 6.10352e-05 0)" d="M268.187 378.808C270.368 378.702 272.61 378.733 274.28 380.345C275.346 381.374 275.835 382.808 275.8 384.275C275.749 386.438 274.774 388.826 273.2 390.326C272.588 390.909 271.807 391.614 270.924 391.604C269.71 391.178 268.483 390.639 267.376 389.982C265.263 388.729 263.047 386.871 262.497 384.361C262.264 383.294 262.403 382.186 263.072 381.297C264.188 379.814 266.433 379.117 268.187 378.808Z"/>
	<path fill="#00204C" transform="matrix(2.444 0 0 2.444 6.10352e-05 0)" d="M268.258 395.938C272.018 397.826 278.692 399.962 280.882 403.76C281.373 404.611 281.563 405.581 281.246 406.532C280.569 408.564 278.267 409.496 276.505 410.361C275.305 410.69 274.108 410.946 272.865 411.038C270.295 411.227 267.498 410.762 265.535 408.971C264.236 407.785 263.528 406.17 263.482 404.417C263.389 400.911 265.959 398.24 268.258 395.938Z"/>
	<path fill="#FDFCFD" transform="matrix(2.444 0 0 2.444 6.10352e-05 0)" d="M137.601 249.705C137.62 249.631 137.642 249.558 137.66 249.484C138.246 247.124 135.4 244.495 138.082 242.685C138.819 242.188 139.72 241.928 140.581 241.754L141.094 241.912L140.975 242.502C140.513 242.795 140.062 243.084 139.624 243.412C140 244.226 140.653 244.85 141.254 245.504C140.853 251.181 137.203 254.457 136.471 259.481C136.047 262.388 137.152 265.424 137.698 268.263C138.462 272.227 138.239 278.044 136.408 281.698C136.537 282.383 136.741 283.04 136.512 283.722C136.292 285.7 137.019 287.865 136.583 289.723Q135.969 290.099 135.361 290.485L135.489 290.715C136.604 290.895 138.047 290.897 138.976 291.561C139.331 292.156 139.253 292.704 139.228 293.367C139.958 294.68 141.993 295.794 143.066 296.999C141.289 296.551 139.5 296.035 137.688 295.756C139.189 296.672 140.797 297.477 142.066 298.707C142.245 301.874 142.197 305.045 142.372 308.209C142.714 314.383 144.009 320.061 140.772 325.808C142.671 325.31 145.278 324.094 147.116 324.985C147.527 325.515 147.695 325.667 147.668 326.375C147.6 328.14 145.307 329.925 143.974 330.832C142.435 331.88 139.721 333.861 137.775 333.406C137.306 333.297 137.355 333.197 137.106 332.824C137.248 332.033 137.595 331.491 138.259 331.034C138.528 330.848 138.817 330.695 139.098 330.53L140.356 329.781C138.757 330.267 137.139 330.716 135.592 331.35C138.439 326.17 136.259 321.322 135.46 315.919C135.218 314.278 135.252 312.627 135.281 310.973C136.786 310.923 138.235 310.779 139.725 310.564C138.703 310.428 136.566 310.412 135.873 309.715C135.735 309.007 135.79 308.15 135.6 307.488C135.089 305.702 132.664 304.571 131.976 302.625C131.463 301.175 132.673 299.647 132.293 298.646C131.465 299.349 131.3 299.904 131.209 300.938C131.123 301.926 131.055 302.928 131.058 303.92C128.831 302.813 127.379 301.676 125.706 299.842L125.073 299.291L124.307 300.153C121.924 302.843 120.252 302.093 119.129 303.277C116.964 305.56 116.134 309.805 113.22 311.339C112.5 311.718 111.628 311.748 110.868 311.475C107.163 310.147 103.242 303.375 101.715 299.956C100.27 300.395 98.8668 301.032 97.37 300.519C96.8787 300.009 96.7271 299.915 96.7325 299.163C96.7431 297.691 98.4133 296.148 99.3669 295.162L102.255 295.297C103.146 294.401 104.002 293.327 105.394 293.417C105.963 293.453 106.656 293.808 106.938 294.32C107.245 294.88 107.306 295.51 107.108 296.117C106.894 296.772 106.443 297.022 105.881 297.329C105.815 297.364 105.748 297.398 105.682 297.433L105.68 297.81C107.29 299.189 109.636 300.042 111.489 301.132C110.526 301.982 109.171 303.001 108.769 304.248L109.043 304.638C109.823 304.379 110.865 302.753 111.448 302.071C112.791 302.632 114.129 303.241 115.536 303.623L111.853 301.267C112.36 296.55 113.614 293.074 117.167 289.843C119.342 290.445 121.468 290.867 123.737 290.765C123.286 290.347 114.644 287.735 113.149 287.193C117.678 285.311 120.492 283.388 123.745 279.699C122.798 279.997 121.351 280.613 120.368 280.52C119.652 280.453 119.61 280.327 119.208 279.788C119.363 278.205 121.155 277.724 122.19 276.684L122.082 276.299C121.538 276.131 121.03 275.953 120.506 275.724L120.488 275.282C121.01 275.057 121.394 274.893 121.821 274.505C121.537 273.48 120.55 273.554 120.356 272.823C120.047 271.66 120.976 270.115 121.452 269.071Q120.263 270.566 119.012 272.01C118.256 272.871 116.497 275.139 115.349 275.215L114.456 274.32C113.798 274.914 113.587 276.036 113.072 276.776C111.66 278.808 106.689 283.82 104.483 284.755L104.311 284.566L104.723 283.381L104.521 283.018C103.719 283.28 103.402 284.026 102.926 284.704C102.365 284.976 102.32 284.956 101.701 284.85C101.211 284.384 100.933 284.08 100.838 283.382C100.754 282.769 100.983 282.045 101.402 281.599C101.815 281.159 102.214 281.049 102.789 280.979C103.732 280.862 104.621 280.623 105.538 280.386C106.689 278.81 107.333 275.878 108.724 274.665C109.563 273.934 110.754 273.482 111.667 272.797L111.732 272.339L110.218 271.719L110.089 271.218C111.454 268.696 114.389 266.232 116.369 264.128C115.929 265.715 114.834 267.948 115.522 269.536L116.013 269.722C117.027 268.382 116.35 265.935 117.503 264.454C119.976 261.277 124.711 260.452 127.074 257.144C127.27 255.479 125.517 254.331 124.808 252.957C124.353 252.076 124.067 250.968 123.8 250.009C123.594 249.27 123.287 248.392 123.672 247.702L124.746 247.955C125.566 247.31 123.988 245.852 124.134 244.875C127.207 245.673 130.918 244.844 133.443 245.967C134.863 246.599 135.764 247.82 136.303 249.24L137.601 249.705Z"/>
	<path fill="#00204C" transform="matrix(2.444 0 0 2.444 6.10352e-05 0)" d="M136.512 283.722C134.535 284.889 133.543 287.999 131.565 289.428C131.02 289.821 130.74 289.876 130.087 289.802C129.676 289.314 129.453 289.139 129.571 288.445C129.974 286.079 134.539 283.129 136.408 281.698C136.537 282.383 136.741 283.04 136.512 283.722Z"/>
	<path fill="#29537A" transform="matrix(2.444 0 0 2.444 6.10352e-05 0)" d="M127.724 295.542C124.686 296.609 120.407 299.363 117.634 299.914C119.963 296.904 128.239 294.07 131.875 293.082C129.942 295.465 127.63 297.491 125.706 299.842L125.073 299.291L127.724 295.542Z"/>
	<path fill="#29537A" transform="matrix(2.444 0 0 2.444 6.10352e-05 0)" d="M136.303 249.24L137.601 249.705C136.64 251.62 136.38 254.477 135.821 256.58C134.659 260.948 132.014 261.761 129.111 264.627C127.866 265.856 126.968 267.43 125.639 268.587C125.201 268.968 124.917 269.175 124.326 269.114L124.078 268.631C124.682 265.912 127.879 264.517 129.756 262.79C130.011 262.555 129.903 262.705 129.925 262.216C129.438 261.873 129.115 261.678 128.789 261.162C129.178 261.196 129.011 261.158 129.376 261.282C129.805 261.429 130.242 261.604 130.698 261.644C131.506 261.714 132.294 261.386 132.89 260.852C135.5 258.509 136.07 252.516 136.303 249.24Z"/>
	<path transform="matrix(2.444 0 0 2.444 6.10352e-05 0)" d="M265.471 316.62C262.22 318.096 259.046 319.705 255.693 320.95Q253.509 321.764 251.274 322.425Q249.039 323.087 246.764 323.594Q244.488 324.1 242.184 324.45Q239.879 324.799 237.556 324.99Q235.233 325.18 232.903 325.21Q230.572 325.241 228.245 325.111Q225.917 324.982 223.605 324.693Q221.292 324.404 219.004 323.957Q217.355 323.623 215.725 323.209Q214.095 322.795 212.487 322.301Q210.879 321.807 209.298 321.235Q207.716 320.662 206.165 320.013Q204.613 319.363 203.096 318.638Q201.578 317.913 200.098 317.114Q198.618 316.315 197.179 315.444Q195.74 314.573 194.345 313.632Q192.951 312.692 191.604 311.684Q190.258 310.676 188.963 309.603Q187.667 308.529 186.427 307.394Q185.186 306.258 184.002 305.063Q182.819 303.868 181.696 302.616Q180.573 301.364 179.512 300.058Q178.452 298.752 177.457 297.396Q176.463 296.04 175.536 294.636Q174.615 293.244 173.764 291.809Q172.912 290.373 172.132 288.898Q171.351 287.423 170.644 285.911Q169.936 284.399 169.303 282.855Q168.67 281.311 168.114 279.737Q167.557 278.164 167.078 276.565Q166.598 274.966 166.198 273.346Q165.797 271.726 165.476 270.088Q165.155 268.45 164.915 266.799Q164.674 265.147 164.514 263.486Q164.355 261.824 164.276 260.157Q164.198 258.49 164.201 256.821Q164.204 255.152 164.289 253.485Q164.373 251.818 164.539 250.158Q164.705 248.497 164.952 246.846Q165.199 245.196 165.526 243.559C168.956 226.525 180.441 210.287 194.893 200.751Q196.297 199.81 197.747 198.941Q199.196 198.071 200.687 197.275Q202.178 196.479 203.706 195.758Q205.235 195.038 206.798 194.394Q208.361 193.75 209.954 193.185Q211.546 192.62 213.166 192.136Q214.785 191.651 216.426 191.248Q218.067 190.844 219.727 190.523Q221.386 190.202 223.059 189.964Q224.733 189.726 226.416 189.572Q228.099 189.418 229.787 189.348Q231.476 189.278 233.166 189.292Q234.856 189.306 236.543 189.405Q238.231 189.504 239.911 189.686Q241.591 189.869 243.26 190.135Q244.929 190.401 246.583 190.75C261.782 193.948 274.093 202.713 284.07 214.308C286.177 216.757 288.341 219.25 290.119 221.954C290.673 222.513 290.709 222.497 291.495 222.605C294.921 221.305 298.377 220.738 301.847 222.378C303.92 223.357 305.463 224.861 307.119 226.409C309.231 226.582 310.786 226.764 312.662 227.856C313.707 229.619 314.109 230.972 314.292 233.014C315.13 233.614 316.947 233.719 317.972 233.884C324.553 234.938 332.461 235.925 333.799 243.888C334.257 246.614 333.763 249.305 332.138 251.568C330.998 253.156 328.942 255.149 326.941 255.534C326.902 255.91 326.832 256.299 326.853 256.676Q327.849 260.617 328.158 264.67C329.254 263.727 330.457 262.938 331.861 262.535C333.07 262.188 334.521 262.205 335.624 262.873C339.611 265.286 342.123 275.749 343.32 280.203C345.071 286.716 348.385 298.182 344.883 304.261C344.209 304.621 343.516 304.951 342.833 305.293C342.506 305.226 342.184 305.151 341.859 305.074C339.199 304.45 336.841 302.072 334.021 302.189C333.599 302.207 332.698 302.381 332.418 302.731C331.224 304.228 333.114 312.701 328.073 317.857C322.188 323.877 307.837 325.182 299.614 325.397C288.336 325.691 274.006 324.665 265.471 316.62Z"/>
	<path fill="#B5B3B3" transform="matrix(2.444 0 0 2.444 6.10352e-05 0)" d="M189.801 209.944C190.041 210.414 190.137 210.656 190.56 210.988C189.781 211.734 188.733 212.56 188.14 213.455C186.051 215.597 183.897 217.674 181.525 219.503C184.025 216.062 186.581 212.752 189.801 209.944Z"/>
	<path fill="#E9E9EA" transform="matrix(2.444 0 0 2.444 6.10352e-05 0)" d="M211.522 204.599L211.022 204.513C210.883 204.274 210.85 204.25 210.775 203.939C210.533 202.942 210.651 197.609 211.066 196.668C211.183 196.403 211.416 196.207 211.59 195.977C213.189 197.852 211.911 199.656 212.695 201.74L212.748 201.884C212.46 202.97 211.955 203.62 211.522 204.599Z"/>
	<path fill="#9A9995" transform="matrix(2.444 0 0 2.444 6.10352e-05 0)" d="M248.416 298.317C249.261 301.206 251.422 307.03 250.517 309.893C250.134 310.315 249.786 310.61 249.309 310.922C249.109 310.343 249.071 309.672 248.981 309.064C249.018 305.626 248.139 302.109 247.508 298.744C247.935 298.68 248.095 298.606 248.416 298.317Z"/>
	<path fill="#1A1819" transform="matrix(2.444 0 0 2.444 6.10352e-05 0)" d="M189.475 248.825C188.889 252.221 183.467 257.744 183.159 261.619L183.527 261.659L183.622 261.407C184.291 259.67 185.6 256.341 187.183 255.373C187.259 255.326 187.332 255.273 187.406 255.224C185.398 258.875 183.539 262.428 182.453 266.48C181.996 265.967 181.785 265.693 181.101 265.495C182.248 260.348 186.011 252.891 189.475 248.825Z"/>
	<path fill="#D9D7DD" transform="matrix(2.444 0 0 2.444 6.10352e-05 0)" d="M189.533 252.398L189.347 253.854C189.73 254.266 189.495 254.148 190.049 254.211C186.812 258.484 184.712 262.9 182.837 267.879C182.704 268.231 182.721 268.126 182.367 268.445L182.108 268.172C182.19 267.582 182.268 267.048 182.453 266.48C183.539 262.428 185.398 258.875 187.406 255.224C188.194 254.489 188.881 253.278 189.533 252.398Z"/>
	<path fill="#E9E9EA" transform="matrix(2.444 0 0 2.444 6.10352e-05 0)" d="M205.141 199.873C204.664 201.777 192.997 209.031 190.56 210.988C190.137 210.656 190.041 210.414 189.801 209.944Q191.491 208.375 193.306 206.953Q195.121 205.531 197.049 204.265Q198.976 203 201.003 201.9Q203.029 200.8 205.141 199.873Z"/>
	<path fill="#E9E9EA" transform="matrix(2.444 0 0 2.444 6.10352e-05 0)" d="M191.234 250.39C196.061 251.476 206.974 252.933 210.692 255.128C210.188 255.435 209.546 255.421 208.962 255.324C207.892 255.144 206.773 254.648 205.691 254.402C201.637 253.48 196.2 252.24 192.053 252.267C191.327 252.886 190.661 253.477 190.049 254.211C189.495 254.148 189.73 254.266 189.347 253.854L189.533 252.398C190.085 251.719 190.622 251.016 191.234 250.39Z"/>
	<path fill="#D9D7DD" transform="matrix(2.444 0 0 2.444 6.10352e-05 0)" d="M254.908 206.866C255.516 206.774 255.368 206.789 255.824 207.093L255.677 207.68C255.155 208.177 254.636 208.295 253.953 208.456C251.274 209.085 248.401 209.241 245.673 209.652C242.278 210.163 238.915 210.942 235.568 211.695C235.34 211.724 235.142 211.653 234.92 211.603L235.044 211.202C239.099 208.766 249.961 207.334 254.908 206.866Z"/>
	<path fill="#D9D7DD" transform="matrix(2.444 0 0 2.444 6.10352e-05 0)" d="M211.59 195.977C214.582 195.81 217.903 194.446 220.903 193.879C230.001 192.16 239.139 192.59 248.094 194.846C247.644 195.264 247.558 195.355 246.906 195.356C244.524 195.363 241.829 194.468 239.403 194.251C232.567 193.638 226.423 194.182 219.654 195.241C217.742 195.54 214.541 195.725 213.136 197.176C212.442 197.894 212.561 198.502 212.631 199.429C212.662 199.837 212.78 199.915 213.1 200.172C213.158 200.219 213.227 200.251 213.29 200.291C213.139 200.86 213.014 201.353 212.748 201.884L212.695 201.74C211.911 199.656 213.189 197.852 211.59 195.977Z"/>
	<path fill="#9A9995" transform="matrix(2.444 0 0 2.444 6.10352e-05 0)" d="M204.641 310.085C206.251 309.304 208.036 310.226 209.665 310.794C210.151 310.964 210.345 310.906 210.592 311.357C211.682 313.07 223.623 316.427 226.235 317.018C229.152 317.678 231.928 317.986 234.809 316.965L236.859 317.73C235.06 318.262 233.234 318.788 231.355 318.946C225.586 319.429 209.091 313.801 204.641 310.085Z"/>
	<path fill="#B5B3B3" transform="matrix(2.444 0 0 2.444 6.10352e-05 0)" d="M213.29 200.291C213.227 200.251 213.158 200.219 213.1 200.172C212.78 199.915 212.662 199.837 212.631 199.429C212.561 198.502 212.442 197.894 213.136 197.176C214.541 195.725 217.742 195.54 219.654 195.241C226.423 194.182 232.567 193.638 239.403 194.251C241.829 194.468 244.524 195.363 246.906 195.356C247.558 195.355 247.644 195.264 248.094 194.846C250.425 195.279 252.53 195.918 254.709 196.857C250.393 197.87 244.085 195.738 239.617 195.321C234.07 194.803 218.712 195.448 214.032 197.984C213.705 198.584 213.622 198.993 213.523 199.648C213.467 200.017 213.49 199.881 213.29 200.291Z"/>
	<path transform="matrix(2.444 0 0 2.444 6.10352e-05 0)" d="M248.04 308.538C247.112 306.417 246.959 302.058 247.028 299.761C247.047 299.127 247.047 299.175 247.508 298.744C248.139 302.109 249.018 305.626 248.981 309.064C249.071 309.672 249.109 310.343 249.309 310.922C246.321 314.012 241.022 316.698 236.859 317.73L234.809 316.965C231.928 317.986 229.152 317.678 226.235 317.018C223.623 316.427 211.682 313.07 210.592 311.357C220.62 314.901 230.51 318.531 240.817 313.723C242.826 312.785 247.238 310.727 248.04 308.538Z"/>
	<path fill="#8C8C8D" transform="matrix(2.444 0 0 2.444 6.10352e-05 0)" d="M248.835 309L248.981 309.064C249.071 309.672 249.109 310.343 249.309 310.922C246.321 314.012 241.022 316.698 236.859 317.73L234.809 316.965C238.803 315.698 243.226 314.094 246.638 311.64C247.623 310.932 248.619 310.253 248.835 309Z"/>
	<path fill="#E9E9EA" transform="matrix(2.444 0 0 2.444 6.10352e-05 0)" d="M188.711 223.466C193.357 218.109 199.204 212.199 205.511 208.857C211.032 205.932 217.434 207.087 223.145 208.841C224.609 209.4 226.096 209.927 227.52 210.58L226.42 211.504C224.978 211.108 223.53 210.491 222.116 209.992C216.83 208.366 211.5 206.916 206.288 209.689C201.632 212.165 197.236 216.437 193.451 220.086C192.263 221.231 191.066 222.705 189.769 223.68C188.807 225.267 189.058 226.721 189.253 228.473C189.275 231.95 189.855 235.404 190.376 238.834C190.002 239.114 189.656 239.354 189.335 239.692Q189.227 239.237 189.127 238.78C188.151 234.363 186.118 227.53 188.711 223.466Z"/>
	<defs>
		<linearGradient id="gradient_0" gradientUnits="userSpaceOnUse" x1="197.01865" y1="218.4138" x2="199.61537" y2="197.75876">
			<stop offset="0" stop-color="#383B3E"/>
			<stop offset="1" stop-color="#5E5A58"/>
		</linearGradient>
	</defs>
	<path fill="url(#gradient_0)" transform="matrix(2.444 0 0 2.444 6.10352e-05 0)" d="M205.141 199.873C206.2 199.209 207.307 198.569 208.27 197.771Q208.123 201.08 207.908 204.385C201.33 208.695 193.817 212.923 189.13 219.402C189.261 217.503 189.674 215.19 188.31 213.619C188.258 213.559 188.197 213.51 188.14 213.455C188.733 212.56 189.781 211.734 190.56 210.988C192.997 209.031 204.664 201.777 205.141 199.873Z"/>
	<path fill="#B5B3B3" transform="matrix(2.444 0 0 2.444 6.10352e-05 0)" d="M259.124 310.351C260.159 310.221 261.648 310.001 262.625 310.369C262.98 310.503 262.971 310.688 263.121 311.002C262.57 312.599 260.03 313.802 258.641 314.681C260.243 313.918 261.472 313.112 263.328 313.327C261.855 315.439 251.329 318.741 248.41 319.496C246.006 320.118 243.537 320.493 241.119 321.081C238.126 321.466 235.114 321.753 232.095 321.695C240.835 319.265 245.818 317.3 252.577 311.109C254.733 310.707 256.942 310.56 259.124 310.351Z"/>
	<path fill="#FDFCFD" transform="matrix(2.444 0 0 2.444 6.10352e-05 0)" d="M258.678 198.625C260.85 199.696 263.023 200.727 265.037 202.081C263.878 202.538 262.75 201.348 262.388 201.875C263.435 203.232 265.417 204.188 266.8 205.226C268.165 206.251 269.381 207.435 270.531 208.692C271.044 211.354 275.542 221.444 274.413 223.205C272.898 221.539 271.604 219.583 270.202 217.813C266.51 213.153 262.427 209.036 257.531 205.636Q258.08 202.127 258.678 198.625Z"/>
	<path fill="#B5B3B3" transform="matrix(2.444 0 0 2.444 6.10352e-05 0)" d="M270.531 208.692C269.381 207.435 268.165 206.251 266.8 205.226C265.417 204.188 263.435 203.232 262.388 201.875C262.75 201.348 263.878 202.538 265.037 202.081C271.971 205.511 279.11 212.315 283.395 218.743C283.822 219.385 284.541 220.238 284.813 220.934C284.851 221.032 284.849 221.141 284.867 221.245C284.305 223.248 286.628 223.688 284.705 225.774C284.176 226.039 283.615 226.508 283.068 226.665C280.245 224.829 276.875 226.271 274.413 223.205C275.542 221.444 271.044 211.354 270.531 208.692Z"/>
	<path fill="#494848" transform="matrix(2.444 0 0 2.444 6.10352e-05 0)" d="M270.531 208.692C269.381 207.435 268.165 206.251 266.8 205.226C265.417 204.188 263.435 203.232 262.388 201.875C262.75 201.348 263.878 202.538 265.037 202.081C271.971 205.511 279.11 212.315 283.395 218.743C283.822 219.385 284.541 220.238 284.813 220.934C284.851 221.032 284.849 221.141 284.867 221.245C284.305 223.248 286.628 223.688 284.705 225.774C282.379 224.058 277.746 224.106 276.504 223.116L276.696 222.751C279.051 222.257 282.679 223.748 284.858 224.649C280.96 219.849 276.202 211.155 270.531 208.692Z"/>
	<path fill="#FDFCFD" transform="matrix(2.444 0 0 2.444 6.10352e-05 0)" d="M333.564 263.299C334.3 263.45 334.918 263.662 335.485 264.165C339.836 268.026 344.742 288.112 345.174 294.298C345.335 296.611 345.563 301.841 343.766 303.556C341.792 305.441 337.964 301.633 335.685 301.22C334.164 300.945 332.793 301.633 331.293 301.599L331.062 300.829C333.837 298.586 336.82 301.435 339.284 300.051C340.027 299.634 340.45 298.706 340.681 297.926C342.609 291.418 338.168 274.87 334.918 268.788C334.362 267.748 333.824 266.914 332.649 266.563C331.686 266.647 331.109 267.368 330.403 267.951C329.816 268.435 329.142 268.961 328.348 268.891C328.222 268.717 328.132 268.618 328.07 268.393C327.858 267.628 328.026 266.831 328.446 266.172C329.532 264.471 331.701 263.721 333.564 263.299Z"/>
	<path fill="#FDFCFD" transform="matrix(2.444 0 0 2.444 6.10352e-05 0)" d="M332.61 267.178C332.923 267.371 333.132 267.537 333.354 267.833C334.466 269.315 335.074 271.546 335.684 273.275C338.262 280.59 341.055 289.328 339.884 297.157C339.755 298.02 339.599 298.621 338.884 299.169C337.819 299.399 336.897 299.111 335.859 298.874C334.167 298.598 332.685 298.755 331.029 299.109C330.955 294.571 330.424 290.016 330.011 285.499C329.545 280.415 329.153 275.35 328.396 270.298C329.911 269.411 331.284 268.321 332.61 267.178Z"/>
	<path fill="#B5B3B3" transform="matrix(2.444 0 0 2.444 6.10352e-05 0)" d="M202.143 304.931C202.19 304.935 202.237 304.941 202.284 304.944C204.773 305.14 207.275 306.23 209.68 306.896C214.862 308.331 220.669 308.046 225.93 307.257C232.25 306.309 237.75 303.99 243.277 300.875C244.174 300.369 245.796 299.811 246.447 299.043C246.89 298.521 246.246 297.313 246.749 296.627C247.237 297.167 247.333 298.039 247.508 298.744C247.047 299.175 247.047 299.127 247.028 299.761C246.959 302.058 247.112 306.417 248.04 308.538C247.238 310.727 242.826 312.785 240.817 313.723C230.51 318.531 220.62 314.901 210.592 311.357C210.345 310.906 210.151 310.964 209.665 310.794C208.036 310.226 206.251 309.304 204.641 310.085C203.477 308.592 202.85 306.673 202.143 304.931Z"/>
	<path fill="#FDFCFD" transform="matrix(2.444 0 0 2.444 6.10352e-05 0)" d="M213.29 200.291C213.49 199.881 213.467 200.017 213.523 199.648C213.622 198.993 213.705 198.584 214.032 197.984C218.712 195.448 234.07 194.803 239.617 195.321C244.085 195.738 250.393 197.87 254.709 196.857C255.394 197.259 255.829 197.389 256.021 198.234C256.486 200.283 255.586 203.005 255.086 204.993Q249.301 205.521 243.631 206.778Q237.96 208.036 232.494 210.002C225.31 206.871 219.421 205.122 211.522 204.599C211.955 203.62 212.46 202.97 212.748 201.884C213.014 201.353 213.139 200.86 213.29 200.291Z"/>
	<path fill="#FDFCFD" transform="matrix(2.444 0 0 2.444 6.10352e-05 0)" d="M169.985 272.997Q172.586 273.339 175.21 273.323Q177.833 273.307 180.43 272.933C182.92 281.212 190.631 288.682 197.1 294.115C197.631 297.153 198.098 300.292 198.936 303.26L201.384 309.748C199.634 309.326 197.835 309.239 196.086 308.824C190.542 307.511 187.13 303.479 183.587 299.324C180.035 296.933 175.465 289.463 174.359 285.315C172.585 281.263 171.169 277.257 169.985 272.997Z"/>
	<path fill="#B5B3B3" transform="matrix(2.444 0 0 2.444 6.10352e-05 0)" d="M172.378 277.106L172.535 277.386C176.581 284.755 177.629 289.044 184.021 295.38C189.123 297.383 193.399 302.394 198.936 303.26L201.384 309.748C199.634 309.326 197.835 309.239 196.086 308.824C190.542 307.511 187.13 303.479 183.587 299.324C180.035 296.933 175.465 289.463 174.359 285.315L174.829 285.185C175.161 283.756 172.897 278.807 172.378 277.106Z"/>
	<path fill="#494848" transform="matrix(2.444 0 0 2.444 6.10352e-05 0)" d="M172.378 277.106L172.535 277.386C176.581 284.755 177.629 289.044 184.021 295.38C184.04 295.458 184.059 295.536 184.08 295.613C185.044 299.019 191.125 304.662 194.3 306.344C195.591 307.027 197.349 307.192 198.477 308.009L198.389 308.315C195.567 308.571 192.211 306.681 190.121 304.914C189.07 304.026 184.658 298.946 184.002 298.875L183.587 299.324C180.035 296.933 175.465 289.463 174.359 285.315L174.829 285.185C175.161 283.756 172.897 278.807 172.378 277.106Z"/>
	<path fill="#494848" transform="matrix(2.444 0 0 2.444 6.10352e-05 0)" d="M261.221 235.656C260.344 235.392 259.54 235.34 258.633 235.308C253.292 235.121 248.488 232.962 244.862 229.002C242.571 226.499 240.53 222.904 240.8 219.419C240.985 217.026 242.202 214.879 244.073 213.394C246.189 211.714 248.7 210.964 251.375 211.352C257.976 212.311 264.616 217.687 268.909 222.509C270.193 223.951 271.185 225.655 272.459 227.088C272.892 227.575 274.183 227.478 274.826 227.504C269.94 228.328 265.752 229.091 262.647 233.388C262.126 234.109 261.675 234.891 261.221 235.656Z"/>
	<defs>
		<linearGradient id="gradient_1" gradientUnits="userSpaceOnUse" x1="193.73813" y1="277.51151" x2="211.24951" y2="259.44583">
			<stop offset="0" stop-color="#373737"/>
			<stop offset="1" stop-color="#5B5B5B"/>
		</linearGradient>
	</defs>
	<path fill="url(#gradient_1)" transform="matrix(2.444 0 0 2.444 6.10352e-05 0)" d="M200.626 256.091C201.564 256.002 202.5 256.005 203.441 256.012C206.29 256.032 208.694 256.164 210.761 258.375C213.363 261.159 213.855 265.155 213.715 268.801C213.57 272.56 212.936 277.309 209.939 279.941C208.17 281.494 206.403 281.748 204.125 281.597C200.751 281.354 197.332 280.969 194.572 278.798C192.063 276.825 190.781 273.844 190.381 270.745C189.899 267.011 190.437 262.704 192.889 259.715C194.963 257.187 197.513 256.419 200.626 256.091Z"/>
	<path fill="#FDFCFD" transform="matrix(2.444 0 0 2.444 6.10352e-05 0)" d="M176.229 225.556C179.225 225.487 182.255 225.359 185.221 225.857C185.316 233.614 186.227 241.717 189.475 248.825C186.011 252.891 182.248 260.348 181.101 265.495C180.573 267.116 180.339 268.817 180.047 270.493C176.763 270.961 173.391 270.835 170.092 270.63Q169.303 268.733 168.765 266.75C165.105 253.539 169.546 237.244 176.229 225.556Z"/>
	<path fill="#FDFCFD" transform="matrix(2.444 0 0 2.444 6.10352e-05 0)" d="M199.694 294.281C206.491 292.248 214.938 288.843 220.387 284.323C228.9 288.677 237.375 291.381 246.812 292.979Q247.662 295.633 248.416 298.317C248.095 298.606 247.935 298.68 247.508 298.744C247.333 298.039 247.237 297.167 246.749 296.627C246.246 297.313 246.89 298.521 246.447 299.043C245.796 299.811 244.174 300.369 243.277 300.875C237.75 303.99 232.25 306.309 225.93 307.257C220.669 308.046 214.862 308.331 209.68 306.896C207.275 306.23 204.773 305.14 202.284 304.944C202.237 304.941 202.19 304.935 202.143 304.931C200.906 301.463 200.317 297.895 199.694 294.281Z"/>
	<path fill="#FDFCFD" transform="matrix(2.444 0 0 2.444 6.10352e-05 0)" d="M189.769 223.68C191.066 222.705 192.263 221.231 193.451 220.086C197.236 216.437 201.632 212.165 206.288 209.689C211.5 206.916 216.83 208.366 222.116 209.992C223.53 210.491 224.978 211.108 226.42 211.504L227.52 210.58L231.442 212.308C232.88 219.752 233.786 227.231 234.648 234.759C228.516 240.577 219.318 247.747 214.504 254.491C207.055 251.38 199.312 250.074 191.566 248.011C190.771 245.252 189.933 242.502 189.335 239.692C189.656 239.354 190.002 239.114 190.376 238.834C189.855 235.404 189.275 231.95 189.253 228.473C189.058 226.721 188.807 225.267 189.769 223.68Z"/>
	<path fill="#1A1819" transform="matrix(2.444 0 0 2.444 6.10352e-05 0)" d="M190.302 225.938C190.53 228.407 192.374 243.108 191.741 244.378C190.867 243.626 190.568 240.08 190.376 238.834C189.855 235.404 189.275 231.95 189.253 228.473L189.708 228.321C190.263 227.638 190.225 226.781 190.302 225.938Z"/>
	<path transform="matrix(2.444 0 0 2.444 6.10352e-05 0)" d="M189.769 223.68C191.066 222.705 192.263 221.231 193.451 220.086C197.236 216.437 201.632 212.165 206.288 209.689C211.5 206.916 216.83 208.366 222.116 209.992C223.53 210.491 224.978 211.108 226.42 211.504L227.903 212.178L228.001 212.47C225.796 212.312 223.328 211.29 221.184 210.679C210.586 207.659 207.183 209.21 198.909 216.391C197.222 217.855 190.395 223.82 190.292 225.652C190.287 225.747 190.299 225.843 190.302 225.938C190.225 226.781 190.263 227.638 189.708 228.321L189.253 228.473C189.058 226.721 188.807 225.267 189.769 223.68Z"/>
	<path fill="#FDFCFD" transform="matrix(2.444 0 0 2.444 6.10352e-05 0)" d="M236.319 236.673C241.492 237.821 249.445 239.508 254.046 242.097C255.808 242.231 258.466 243.8 260.018 244.685C259.883 242.388 260.109 240.178 260.406 237.902C261.023 237.754 261.098 237.669 261.662 237.934C261.152 241.102 261.053 243.702 262.417 246.709C260.163 249.35 257.408 251.954 257.696 255.743C257.896 258.367 259.412 260.287 260.513 262.551C259.495 267.667 260.151 269.254 262.885 273.557C262.74 275.11 262.533 276.632 262.168 278.151C261.415 281.281 259.037 286.413 261.403 289.268C262.135 290.152 263.247 290.488 264.364 290.535C264.979 290.561 265.469 290.503 265.945 290.072C267.259 288.882 267.413 286.669 267.424 285.022C267.453 280.513 267.121 275.008 270.204 271.29L270.919 272.012C270.505 272.877 270.168 273.755 269.989 274.7C269.307 278.308 269.213 282.26 268.85 285.924C268.265 291.83 266.574 302.556 267.38 308.235C267.825 311.363 269.41 313.783 271.919 315.657C280.441 322.02 299.59 321.65 309.904 320.039C315.452 319.173 321.977 317.567 325.396 312.678C326.605 310.948 326.985 309.242 327.101 307.172C327.462 300.744 326.009 290.648 325.419 283.932C324.637 275.031 324.338 265.82 322.916 257.004C322.785 256.701 322.741 256.291 322.667 255.965Q324.806 255.774 326.941 255.534C326.902 255.91 326.832 256.299 326.853 256.676C326.799 256.777 326.74 256.876 326.689 256.979C325.59 259.21 331.056 301.427 330.751 308.331C330.672 310.139 330.361 311.983 329.656 313.658C328.397 316.646 325.121 318.962 322.208 320.129C309.269 325.311 285.618 325.958 272.68 320.363C269.192 318.854 265.878 316.302 264.442 312.674C263.128 309.356 263.565 305.912 263.886 302.46C263.824 302.32 263.789 302.164 263.699 302.041C262.659 300.619 259.45 300.042 258.21 298.08C256.624 295.571 257.039 291.17 254.734 289.332C253.616 290.209 252.193 290.862 250.944 291.55C253.15 288.816 256.014 286.482 258.954 284.575Q260.19 281.526 261.179 278.388C257.284 283.153 252.203 287.059 247.24 290.654C238.593 288.899 229.75 286.804 222 282.415C219.999 277.916 218.575 272.213 218.003 267.322C217.374 265.15 215.934 257.964 216.248 255.948C222.478 248.999 229.166 242.664 236.319 236.673Z"/>
	<path transform="matrix(2.444 0 0 2.444 6.10352e-05 0)" d="M236.241 238.881C242.421 239.479 248.069 241.698 253.982 243.396C255.032 243.851 256.088 244.271 257.058 244.886C250.269 243.357 243.597 241.394 236.802 239.865C230.291 244.615 224.253 250.824 218.876 256.815Q219.817 262.671 220.902 268.501C221.523 271.77 222.644 275.613 222.488 278.946C221.296 275.536 220.864 271.956 219.906 268.487C219.223 264.69 218.3 260.969 217.775 257.14C218.609 253.703 232.757 241.044 236.241 238.881Z"/>
	<path fill="#E9E9EA" transform="matrix(2.444 0 0 2.444 6.10352e-05 0)" d="M236.319 236.673C241.492 237.821 249.445 239.508 254.046 242.097C253.939 242.123 253.831 242.153 253.723 242.174C251.78 242.556 238.661 235.851 235.614 237.98L235.342 238.609C235.443 238.592 235.544 238.573 235.645 238.557C238.294 238.144 251.84 241.409 253.758 243.062C253.932 243.212 253.912 243.215 253.982 243.396C248.069 241.698 242.421 239.479 236.241 238.881C232.757 241.044 218.609 253.703 217.775 257.14C218.3 260.969 219.223 264.69 219.906 268.487L219.481 268.358C218.925 267.03 218.963 265.744 218.51 264.449C218.398 264.128 218.337 263.848 218.025 263.683C218.222 264.916 218.503 265.91 218.078 267.117C218.054 267.186 218.028 267.254 218.003 267.322C217.374 265.15 215.934 257.964 216.248 255.948C222.478 248.999 229.166 242.664 236.319 236.673Z"/>
	<path fill="#494848" transform="matrix(2.444 0 0 2.444 6.10352e-05 0)" d="M258.763 285.646C259.083 287.396 259.592 290.026 261.217 291.023C262.371 291.731 263.706 291.411 264.822 292.319C264.73 295.38 264.602 299.541 263.886 302.46C263.824 302.32 263.789 302.164 263.699 302.041C262.659 300.619 259.45 300.042 258.21 298.08C256.624 295.571 257.039 291.17 254.734 289.332C256.09 288.169 257.617 287.018 258.763 285.646Z"/>
	<path transform="matrix(2.444 0 0 2.444 6.10352e-05 0)" d="M291.495 222.605C294.921 221.305 298.377 220.738 301.847 222.378C303.92 223.357 305.463 224.861 307.119 226.409C309.231 226.582 310.786 226.764 312.662 227.856C313.707 229.619 314.109 230.972 314.292 233.014C315.13 233.614 316.947 233.719 317.972 233.884C324.553 234.938 332.461 235.925 333.799 243.888C334.257 246.614 333.763 249.305 332.138 251.568C330.998 253.156 328.942 255.149 326.941 255.534Q324.806 255.774 322.667 255.965C322.741 256.291 322.785 256.701 322.916 257.004C322.83 257.031 322.742 257.05 322.66 257.085C321.324 257.66 320.395 259.176 319.073 259.866C315.704 261.624 312.07 259.345 308.624 259.267C308.385 259.261 308.146 259.243 307.907 259.231L307.854 258.732L307.161 258.265C304.32 260.669 305.461 268.143 301.823 268.774C300.721 268.453 300.088 267.477 299.563 266.511C299.413 266.236 299.293 265.953 299.171 265.665C300.189 263.466 301.533 260.86 300.729 258.383C300.5 257.681 300.21 257.302 299.578 256.905C298.897 256.903 298.565 256.92 298.054 257.415C296.32 259.092 296.136 263.036 296.279 265.34C296.559 269.85 298.545 275.339 295.232 279.245C294.541 280.061 293.652 280.567 292.577 280.639C291.282 280.726 289.768 280.349 288.667 279.666C287.768 278.448 287.876 277 288.07 275.558C289.003 268.639 291.686 264.641 287.664 257.621C285.939 259.793 284.256 261.156 281.728 262.38C281.362 263.122 280.985 263.86 280.647 264.615C280.911 265.139 281.147 265.72 281.504 266.186C280.6 266.854 279.689 267.551 278.67 268.035C276.083 269.266 272.885 269.824 270.919 272.012L270.204 271.29C267.121 275.008 267.453 280.513 267.424 285.022C267.413 286.669 267.259 288.882 265.945 290.072C265.469 290.503 264.979 290.561 264.364 290.535C263.247 290.488 262.135 290.152 261.403 289.268C259.037 286.413 261.415 281.281 262.168 278.151C262.533 276.632 262.74 275.11 262.885 273.557C260.151 269.254 259.495 267.667 260.513 262.551C259.412 260.287 257.896 258.367 257.696 255.743C257.408 251.954 260.163 249.35 262.417 246.709C261.053 243.702 261.152 241.102 261.662 237.934C261.098 237.669 261.023 237.754 260.406 237.902C260.516 237.102 260.896 236.387 261.221 235.656C261.675 234.891 262.126 234.109 262.647 233.388C265.752 229.091 269.94 228.328 274.826 227.504L275.497 227.242C276.116 227.404 276.578 227.676 277.158 227.906C278.887 228.593 281.469 227.321 283.068 226.665C283.615 226.508 284.176 226.039 284.705 225.774C286.628 223.688 284.305 223.248 284.867 221.245C285.574 222.081 286.276 222.916 286.95 223.779C287.991 223.2 289.168 222.665 290.119 221.954C290.673 222.513 290.709 222.497 291.495 222.605Z"/>
	<path fill="#D9D7DD" transform="matrix(2.444 0 0 2.444 6.10352e-05 0)" d="M280.647 264.615C280.911 265.139 281.147 265.72 281.504 266.186C280.6 266.854 279.689 267.551 278.67 268.035C276.083 269.266 272.885 269.824 270.919 272.012L270.204 271.29C273.139 267.131 277.171 269.018 280.647 264.615Z"/>
	<path fill="#E9E9EA" transform="matrix(2.444 0 0 2.444 6.10352e-05 0)" d="M307.161 258.265C309.453 256.996 313.914 259.576 316.645 259.098C318.966 258.692 320.469 256.268 322.667 255.965C322.741 256.291 322.785 256.701 322.916 257.004C322.83 257.031 322.742 257.05 322.66 257.085C321.324 257.66 320.395 259.176 319.073 259.866C315.704 261.624 312.07 259.345 308.624 259.267C308.385 259.261 308.146 259.243 307.907 259.231L307.854 258.732L307.161 258.265Z"/>
	<path fill="#E9E9EA" transform="matrix(2.444 0 0 2.444 6.10352e-05 0)" d="M284.705 225.774C286.628 223.688 284.305 223.248 284.867 221.245C285.574 222.081 286.276 222.916 286.95 223.779C287.991 223.2 289.168 222.665 290.119 221.954C290.673 222.513 290.709 222.497 291.495 222.605C289.013 224.048 286.953 226.052 284.518 227.468C282.439 228.677 280.106 229.337 277.831 230.069C274.183 229.127 270.883 228.639 267.44 230.654C264.589 232.322 263.001 235.029 261.662 237.934C261.098 237.669 261.023 237.754 260.406 237.902C260.516 237.102 260.896 236.387 261.221 235.656C261.675 234.891 262.126 234.109 262.647 233.388C265.752 229.091 269.94 228.328 274.826 227.504L275.497 227.242C276.116 227.404 276.578 227.676 277.158 227.906C278.887 228.593 281.469 227.321 283.068 226.665C283.615 226.508 284.176 226.039 284.705 225.774Z"/>
	<path fill="#FDFCFD" transform="matrix(2.444 0 0 2.444 6.10352e-05 0)" d="M294.872 222.781C296.109 222.677 297.412 222.598 298.652 222.73C302.097 223.098 304.463 225.13 306.529 227.722Q307.11 227.754 307.69 227.792C309.142 227.889 310.978 227.928 311.972 229.177C313.006 230.477 312.72 232.352 312.56 233.884C318.181 235.286 327.143 235.004 331.022 239.967C332.545 241.916 333.111 244.43 332.811 246.865C332.514 249.27 331.361 251.477 329.434 252.972C327.213 254.697 324.771 254.98 322.069 254.659C318.268 258.201 315.862 258.683 310.879 257.309C310.099 257.094 309.055 256.707 308.255 256.766C304.007 257.083 304.739 264.734 302.657 267.234C302.097 267.442 301.856 267.481 301.277 267.17C299.049 265.974 302.691 261.056 301.864 258.523C301.287 256.759 299.732 256.162 298.197 255.418C291.903 264.538 298.469 273.094 294.98 278.007C294.195 279.112 292.931 279.586 291.62 279.711C291.043 279.766 290.548 279.669 290.095 279.295C287.734 277.344 290.298 270.238 290.681 267.66C290.883 266.308 290.819 264.977 290.733 263.619L290.679 263.385C290.01 260.552 289.011 258.436 287.548 255.908C285.371 260.106 283.425 259.351 280.818 262.192C279.706 263.404 279.305 265.058 278.125 266.321C275.99 267.16 273.83 267.03 271.866 268.36C267.823 271.097 266.449 276.411 266.418 281.037C266.404 283.099 266.69 285.446 266.254 287.453C266.076 288.273 265.781 289.021 265.013 289.448C264.578 289.69 264.08 289.671 263.618 289.498C262.25 288.984 261.706 287.884 261.075 286.663C261.719 282.066 263.478 277.779 263.916 273.114C258.223 264.881 262.538 265.556 261.686 262.358C261.273 260.809 258.71 259.224 258.477 255.435C258.251 251.764 261.672 249.362 263.799 246.84Q263.368 246.064 262.999 245.256C261.822 242.687 261.968 239.538 262.993 236.941C264.065 234.228 266.189 231.942 268.904 230.832C272.03 229.554 275.001 230.112 278.009 231.349C280.001 230.195 282.181 229.752 284.207 228.726C288.743 226.428 288.593 224.389 294.872 222.781Z"/>
	<path transform="matrix(2.444 0 0 2.444 6.10352e-05 0)" d="M287.664 257.621C291.686 264.641 289.003 268.639 288.07 275.558C287.876 277 287.768 278.448 288.667 279.666C289.768 280.349 291.282 280.726 292.577 280.639C293.652 280.567 294.541 280.061 295.232 279.245C298.545 275.339 296.559 269.85 296.279 265.34C296.136 263.036 296.32 259.092 298.054 257.415C298.565 256.92 298.897 256.903 299.578 256.905C300.21 257.302 300.5 257.681 300.729 258.383C301.533 260.86 300.189 263.466 299.171 265.665C299.293 265.953 299.413 266.236 299.563 266.511C300.088 267.477 300.721 268.453 301.823 268.774C305.461 268.143 304.32 260.669 307.161 258.265L307.854 258.732L307.907 259.231C308.146 259.243 308.385 259.261 308.624 259.267C312.07 259.345 315.704 261.624 319.073 259.866C320.395 259.176 321.324 257.66 322.66 257.085C322.742 257.05 322.83 257.031 322.916 257.004C324.338 265.82 324.637 275.031 325.419 283.932C326.009 290.648 327.462 300.744 327.101 307.172C326.985 309.242 326.605 310.948 325.396 312.678C321.977 317.567 315.452 319.173 309.904 320.039C299.59 321.65 280.441 322.02 271.919 315.657C269.41 313.783 267.825 311.363 267.38 308.235C266.574 302.556 268.265 291.83 268.85 285.924C269.213 282.26 269.307 278.308 269.989 274.7C270.168 273.755 270.505 272.877 270.919 272.012C272.885 269.824 276.083 269.266 278.67 268.035C279.689 267.551 280.6 266.854 281.504 266.186C281.147 265.72 280.911 265.139 280.647 264.615C280.985 263.86 281.362 263.122 281.728 262.38C284.256 261.156 285.939 259.793 287.664 257.621Z"/>
	<path fill="#B5B3B3" transform="matrix(2.444 0 0 2.444 6.10352e-05 0)" d="M282.247 295.096L283.58 295.661C283.961 299.51 283.516 303.907 282.81 307.685C281.869 303.657 282.219 299.205 282.247 295.096Z"/>
	<path fill="#E9E9EA" transform="matrix(2.444 0 0 2.444 6.10352e-05 0)" d="M296.011 294.45C296.984 295.867 296.615 297.839 297.156 299.495C297.277 297.803 297.254 295.923 297.926 294.349C297.83 298.926 297.808 303.492 297.167 308.034C296.047 303.777 296.187 298.836 296.011 294.45Z"/>
	<path fill="#FDFCFD" transform="matrix(2.444 0 0 2.444 6.10352e-05 0)" d="M311.165 262.102C311.764 262.322 312.122 262.504 312.592 262.938C313.441 266.025 312.326 302.573 311.612 307.525C311.184 306.899 311.163 306.091 311.095 305.353C310.466 298.536 310.63 291.592 310.446 284.746C310.308 279.572 309.614 268.343 310.4 263.572C310.503 262.944 310.768 262.586 311.165 262.102Z"/>
	<path fill="#FDFCFD" transform="matrix(2.444 0 0 2.444 6.10352e-05 0)" d="M287.664 257.621C291.686 264.641 289.003 268.639 288.07 275.558C287.876 277 287.768 278.448 288.667 279.666C289.768 280.349 291.282 280.726 292.577 280.639C293.652 280.567 294.541 280.061 295.232 279.245C298.545 275.339 296.559 269.85 296.279 265.34C296.136 263.036 296.32 259.092 298.054 257.415C298.565 256.92 298.897 256.903 299.578 256.905C300.21 257.302 300.5 257.681 300.729 258.383C301.533 260.86 300.189 263.466 299.171 265.665C299.293 265.953 299.413 266.236 299.563 266.511C300.088 267.477 300.721 268.453 301.823 268.774C305.461 268.143 304.32 260.669 307.161 258.265L307.854 258.732L307.907 259.231C305.066 261.67 306.958 269.857 302.287 269.618C300.736 269.538 299.487 268.74 298.481 267.609L298.106 267.691L297.926 294.349C297.254 295.923 297.277 297.803 297.156 299.495C296.615 297.839 296.984 295.867 296.011 294.45Q295.904 287.247 295.986 280.043C294.319 281.061 292.348 282.338 290.3 281.782C288.984 281.425 287.643 280.317 287.045 279.093C285.334 275.595 288.351 271.346 288.699 267.8C288.961 265.13 288.428 262.538 287.765 259.966C286.637 260.98 285.471 261.863 284.235 262.741C284.192 273.666 284.5 284.779 283.58 295.661L282.247 295.096Q281.889 289.43 281.799 283.753C281.768 280.278 282.274 268.795 281.504 266.186C281.147 265.72 280.911 265.139 280.647 264.615C280.985 263.86 281.362 263.122 281.728 262.38C284.256 261.156 285.939 259.793 287.664 257.621Z"/>
</svg>
